Fly_normalized_Motion_pl01
version=1
nRows=18
nColumns=43
inDegrees=yes
endheader
time		pelvis_tilt		pelvis_list		pelvis_rotation		pelvis_tx		pelvis_ty		pelvis_tz		hip_flexion_r		hip_adduction_r		hip_rotation_r		knee_angle_r		ankle_angle_r		subtalar_angle_r		mtp_angle_r		hip_flexion_l		hip_adduction_l		hip_rotation_l		knee_angle_l		ankle_angle_l		subtalar_angle_l		mtp_angle_l		lumbar_extension		lumbar_bending		lumbar_rotation		neck_flexion		neck_lateral_bending		neck_rotation		arm_flex_r		arm_add_r		arm_rot_r		elbow_flex_r		pro_sup_r		wrist_flex_r		wrist_dev_r		hand_finger_flex_r		arm_flex_l		arm_add_l		arm_rot_l		elbow_flex_l		pro_sup_l		wrist_flex_l		wrist_dev_l		hand_finger_flex_l		
0.665833		1.695211		17.526317		88.126256		-0.025635		1.610127		0.890073		16.759327		-3.826675		-10.259106		-26.379635		-29.064147		1.065121		14.324851		10.349364		-4.121450		-14.025066		-24.844824		-27.393016		-12.723626		12.207025		-62.652476		0.531734		-1.750313		-11.589813		-1.887889		2.694315		-3.697986		-35.320139		5.231778		44.423751		93.989213		-18.382343		-1.307764		26.222686		-9.681195		-25.903393		-13.465397		60.098906		112.600278		-17.028589		7.191674		64.872514		
0.670354		1.674635		17.679924		88.203378		-0.025626		1.595598		0.879826		16.168025		-3.820007		-10.365988		-25.659704		-29.324263		1.064463		14.250920		9.976952		-4.160979		-14.103619		-24.483656		-27.601570		-12.553204		12.415942		-61.989023		0.544375		-1.872391		-12.855818		-1.956634		2.723844		-6.558660		-35.206518		4.489784		43.783103		93.729003		-18.111195		-1.305317		26.180034		-12.380184		-25.720610		-14.185061		59.863013		112.389685		-17.203265		7.066434		64.893259		
0.674874		1.664811		17.885124		88.263039		-0.025796		1.581095		0.869404		15.436671		-3.819277		-10.592269		-24.831932		-29.546998		1.045994		14.165561		9.481192		-4.193893		-14.227572		-24.029084		-27.773820		-12.297796		12.806734		-61.398925		0.562253		-1.903537		-13.982853		-1.987390		2.764971		-9.470152		-34.957820		3.283265		43.096023		93.373392		-17.606122		-1.252124		26.070508		-14.979678		-25.397951		-14.921657		59.599431		112.098466		-17.462903		6.865181		64.885195		
0.679394		1.647147		17.958328		88.311362		-0.025648		1.566125		0.858974		14.908544		-3.789130		-10.706215		-24.125111		-29.762180		1.059196		14.082783		9.155772		-4.252131		-14.332473		-23.621737		-28.012833		-12.159123		12.967136		-60.636308		0.530971		-2.042204		-15.247165		-2.001282		2.774918		-12.253380		-34.756249		2.630834		42.486094		93.132886		-17.369926		-1.175225		26.019609		-17.659327		-25.207979		-15.551847		59.361036		111.852553		-17.634903		6.814927		64.909745		
0.683914		1.644578		18.131396		88.330043		-0.025738		1.551245		0.848382		14.191454		-3.763323		-10.964393		-23.314910		-29.963624		1.073817		13.941141		8.660287		-4.303989		-14.497887		-23.124318		-28.245908		-11.915962		13.410200		-59.992464		0.518574		-2.064344		-16.390276		-2.008349		2.778714		-15.136689		-34.421812		1.370962		41.887720		92.927158		-16.809924		-0.932385		25.807648		-20.201099		-24.917887		-16.099840		59.086820		111.381893		-17.899551		6.651178		64.856535		
0.688434		1.625154		18.164568		88.347847		-0.025670		1.535876		0.837765		13.699592		-3.740059		-11.131692		-22.657286		-30.199236		1.105545		13.835227		8.376114		-4.362514		-14.638065		-22.733652		-28.539913		-11.801919		13.535504		-59.157855		0.460930		-2.166697		-17.748348		-2.021786		2.803909		-17.870603		-34.181612		0.785332		41.258150		92.778194		-16.662557		-0.779119		25.722524		-22.812879		-24.612742		-16.721828		58.876822		111.056259		-18.075500		6.611335		64.855104		
0.692955		1.680485		18.445240		88.369689		-0.025731		1.520829		0.826995		12.833649		-3.673176		-11.491071		-21.835526		-30.461807		1.308724		13.591145		7.734948		-4.497578		-14.891797		-22.230691		-28.835837		-11.456772		14.210324		-58.611602		0.503003		-2.104824		-18.922175		-2.086620		2.762712		-20.849518		-33.719846		-0.799626		40.918532		92.848948		-15.926609		-0.103627		25.295245		-25.284959		-24.378614		-17.012409		58.631317		110.224622		-18.407837		6.355086		64.652425		
0.697475		1.663302		18.379100		88.334795		-0.025593		1.504947		0.816284		12.437738		-3.632950		-11.683006		-21.152019		-30.705848		1.396586		13.503254		7.515216		-4.557633		-15.053351		-21.791317		-29.141740		-11.379621		14.275994		-57.657246		0.397248		-2.225716		-20.290661		-2.102853		2.779789		-23.482566		-33.474736		-1.139012		40.335169		92.746675		-15.894009		-0.001396		25.212051		-27.890988		-24.004487		-17.623282		58.485252		109.977832		-18.559098		6.377950		64.681732		
0.701995		1.658191		18.475485		88.317500		-0.025454		1.489228		0.805448		11.838195		-3.613371		-12.048096		-20.452107		-31.010477		1.741576		13.406216		7.068591		-4.645989		-15.355663		-21.300194		-29.429180		-11.110007		14.558623		-56.882032		0.320118		-2.285562		-21.587846		-2.125040		2.839476		-26.210259		-33.029859		-2.069992		39.929444		92.448747		-15.704329		0.549551		25.052310		-30.383311		-23.576488		-18.259440		58.319878		109.378320		-18.822403		6.372453		64.629565		
0.706515		1.643370		18.508716		88.315121		-0.025264		1.473157		0.794661		11.351639		-3.579037		-12.239036		-19.853509		-31.263194		1.950418		13.343965		6.719743		-4.719427		-15.513720		-20.838169		-29.702723		-10.941349		14.699151		-56.033603		0.223043		-2.383344		-22.919137		-2.138493		2.817492		-28.885943		-32.715883		-2.480070		39.587114		92.292884		-15.571672		0.846487		25.005610		-32.991583		-23.260997		-18.701241		58.357487		108.975289		-18.964192		6.347940		64.653834		
0.711035		1.613600		18.530685		88.290497		-0.025057		1.456929		0.783866		10.891581		-3.548819		-12.473880		-19.253930		-31.500288		2.197976		13.303127		6.347486		-4.761596		-15.687945		-20.335478		-29.941104		-10.766122		14.824728		-55.180045		0.096086		-2.475873		-24.217336		-2.122903		2.823101		-31.528547		-32.351508		-2.921507		39.289599		92.097975		-15.453394		1.194665		25.018747		-35.572998		-22.899267		-19.166281		58.455981		108.482435		-19.137243		6.304126		64.678635		
0.715556		1.581504		18.662546		88.225536		-0.024818		1.440750		0.773021		10.253162		-3.547585		-12.828681		-18.591317		-31.656906		2.671191		13.344537		5.802677		-4.813894		-15.987408		-19.728692		-30.096904		-10.446646		15.190610		-54.469361		-0.057182		-2.516461		-25.380179		-2.112439		2.863259		-34.205671		-31.886971		-3.723151		39.212828		91.947380		-15.192938		2.022377		25.078773		-38.128856		-22.582603		-19.405817		58.595405		107.468557		-19.582808		6.210708		64.664125		
0.720076		1.584387		18.580975		88.201901		-0.024491		1.423967		0.762350		9.910527		-3.461707		-12.939042		-18.023328		-31.850152		2.795753		13.322580		5.573693		-4.902428		-16.071289		-19.230652		-30.277697		-10.372934		15.250627		-53.544376		-0.181494		-2.589284		-26.589229		-2.077368		2.845933		-36.765883		-31.567960		-3.823996		39.036311		91.916950		-15.056114		2.140131		25.151492		-40.789766		-22.293372		-19.640084		58.965119		107.200965		-19.761164		6.099450		64.766147		
0.724596		1.582211		18.470500		88.208663		-0.023909		1.407010		0.751663		9.565617		-3.360230		-13.108803		-17.404486		-32.028011		3.028162		13.320159		5.363517		-5.015298		-16.256920		-18.693881		-30.364052		-10.255837		15.345874		-52.616419		-0.311057		-2.632892		-27.659895		-2.044328		2.918755		-39.294153		-31.083734		-4.041430		38.943910		91.831640		-14.880165		2.419413		25.274016		-43.371909		-21.973803		-19.914293		59.350166		106.860828		-20.088742		5.977499		64.882768		
0.729116		1.618443		18.393742		88.171435		-0.023624		1.389867		0.740954		9.201031		-3.268542		-13.297730		-16.845241		-32.242926		3.320631		13.317023		5.149946		-5.154841		-16.455049		-18.286735		-30.437733		-10.070047		15.445476		-51.706551		-0.438141		-2.740539		-28.954322		-1.862839		2.975015		-41.836188		-30.713396		-4.417163		39.081468		91.679387		-14.718908		2.725030		25.440435		-46.049565		-21.550188		-20.181343		59.846831		106.562324		-20.466774		5.840421		65.053508		
0.733636		1.667410		18.422548		88.182577		-0.023107		1.372782		0.730204		8.652693		-3.159133		-13.646778		-16.196978		-32.349343		3.906562		13.433778		4.778455		-5.340876		-16.769198		-17.795302		-30.239083		-9.525171		15.854194		-50.947563		-0.514635		-2.766073		-29.979961		-1.789972		3.120522		-44.430842		-30.072761		-5.318304		39.476780		91.499361		-14.445372		3.753160		25.838541		-48.514938		-21.157524		-20.357921		60.232758		106.094230		-21.402338		5.734688		65.543626		
0.738157		1.645492		18.325164		88.195953		-0.022714		1.355345		0.719568		8.281440		-3.083582		-13.711902		-15.580774		-32.460514		3.995578		13.419147		4.561175		-5.401709		-16.764130		-17.270399		-30.306792		-9.441015		15.918835		-50.059607		-0.667985		-2.878211		-31.108814		-1.716806		3.069324		-46.841621		-29.634637		-5.514567		39.643594		91.380541		-14.284338		3.786672		26.001378		-50.987268		-20.731240		-20.639308		60.749813		105.975624		-21.544482		5.589283		65.766248		
0.742677		1.603881		18.476131		88.226806		-0.022782		1.338099		0.708935		7.677100		-3.125323		-14.066978		-15.094484		-32.487067		4.371117		13.510649		4.113200		-5.424830		-16.820084		-16.872072		-30.151836		-9.066305		16.346867		-49.470381		-0.755396		-2.934633		-32.160899		-1.547578		3.129927		-49.409080		-28.904663		-6.942106		40.193537		90.987749		-13.820964		4.622008		26.613745		-53.156341		-20.133452		-21.086363		61.073962		105.867858		-21.979163		5.363871		66.300668		
